<mxfile host="app.diagrams.net" modified="2020-10-06T12:41:28.699Z" agent="5.0 (X11)" etag="y9rZUMJd9EpeDNgcAdL2" version="13.7.7" type="github">
  <diagram id="oz5weRvFCRklSf2JF1Bt" name="Page-1">
    <mxGraphModel dx="1282" dy="775" grid="1" gridSize="10" guides="1" tooltips="1" connect="1" arrows="1" fold="1" page="1" pageScale="1" pageWidth="850" pageHeight="1100" math="0" shadow="0">
      <root>
        <mxCell id="0" />
        <mxCell id="1" parent="0" />
        <mxCell id="8O-H2GcqhOEYB3syv0Sq-9" style="edgeStyle=orthogonalEdgeStyle;rounded=0;orthogonalLoop=1;jettySize=auto;html=1;exitX=0.5;exitY=1;exitDx=0;exitDy=0;exitPerimeter=0;entryX=0.5;entryY=0;entryDx=0;entryDy=0;" edge="1" parent="1" source="8O-H2GcqhOEYB3syv0Sq-7" target="8O-H2GcqhOEYB3syv0Sq-8">
          <mxGeometry relative="1" as="geometry" />
        </mxCell>
        <mxCell id="8O-H2GcqhOEYB3syv0Sq-7" value="&lt;b&gt;&lt;font style=&quot;font-size: 40px&quot;&gt;Start&lt;/font&gt;&lt;/b&gt;" style="strokeWidth=2;html=1;shape=mxgraph.flowchart.terminator;whiteSpace=wrap;" vertex="1" parent="1">
          <mxGeometry x="160" y="80" width="160" height="80" as="geometry" />
        </mxCell>
        <mxCell id="8O-H2GcqhOEYB3syv0Sq-11" style="edgeStyle=orthogonalEdgeStyle;rounded=0;orthogonalLoop=1;jettySize=auto;html=1;exitX=0.5;exitY=1;exitDx=0;exitDy=0;entryX=0.593;entryY=-0.021;entryDx=0;entryDy=0;entryPerimeter=0;" edge="1" parent="1" source="8O-H2GcqhOEYB3syv0Sq-8" target="8O-H2GcqhOEYB3syv0Sq-10">
          <mxGeometry relative="1" as="geometry" />
        </mxCell>
        <mxCell id="8O-H2GcqhOEYB3syv0Sq-8" value="&lt;font style=&quot;font-size: 24px&quot;&gt;Input bil1&lt;/font&gt;" style="shape=parallelogram;html=1;strokeWidth=2;perimeter=parallelogramPerimeter;whiteSpace=wrap;rounded=1;arcSize=12;size=0.23;" vertex="1" parent="1">
          <mxGeometry x="170" y="230" width="140" height="80" as="geometry" />
        </mxCell>
        <mxCell id="8O-H2GcqhOEYB3syv0Sq-10" value="&lt;font style=&quot;font-size: 24px&quot;&gt;Input bil2&lt;/font&gt;" style="shape=parallelogram;html=1;strokeWidth=2;perimeter=parallelogramPerimeter;whiteSpace=wrap;rounded=1;arcSize=12;size=0.23;" vertex="1" parent="1">
          <mxGeometry x="160" y="350" width="140" height="80" as="geometry" />
        </mxCell>
      </root>
    </mxGraphModel>
  </diagram>
</mxfile>
